<svg xmlns="http://www.w3.org/2000/svg" width="14.677" height="14.677" viewBox="0 0 14.677 14.677"><path d="M50,11.489v9.116l.978,1.712v.424a.245.245,0,0,0,.489,0v-.424l.978-1.712V11H50Zm1.78,9.3-.557.975-.557-.975Z" transform="translate(-37.769 -8.309)"/><path d="M51.716,0H50.73A.731.731,0,0,0,50,.73V2.2h2.446V.73A.731.731,0,0,0,51.716,0Z" transform="translate(-37.769)"/><path d="M0,0V14.677H11.253V0H0ZM10.763,14.188H2.446V.489h8.317Z"/><path d="M20.871,10H15v3.425h5.871Zm-1.223,2.446H16.223v-.489h3.425Zm0-.978H16.223v-.489h3.425Z" transform="translate(-11.331 -7.554)"/></svg>