<svg xmlns="http://www.w3.org/2000/svg" width="75.801" height="41.346" viewBox="0 0 75.801 41.346"><defs><style>.a{fill:#27ae60;}</style></defs><path class="a" d="M76.8,12.891a6.911,6.911,0,0,1-6.891,6.891,5.856,5.856,0,0,1-1.757-.241L55.887,31.772a6.086,6.086,0,0,1,.241,1.792,6.891,6.891,0,0,1-13.782,0,6.086,6.086,0,0,1,.241-1.792L33.8,22.986a6.775,6.775,0,0,1-3.583,0L14.541,38.7a5.856,5.856,0,0,1,.241,1.757,6.891,6.891,0,1,1-6.891-6.891,5.856,5.856,0,0,1,1.757.241L25.36,18.128a6.086,6.086,0,0,1-.241-1.792,6.891,6.891,0,0,1,13.782,0,6.086,6.086,0,0,1-.241,1.792l8.786,8.786a6.775,6.775,0,0,1,3.583,0L63.26,14.648a5.856,5.856,0,0,1-.241-1.757,6.891,6.891,0,1,1,13.782,0Z" transform="translate(-1 -6)"/></svg>