<svg xmlns="http://www.w3.org/2000/svg" width="20" height="16.949" viewBox="0 0 20 16.949"><defs><style>.a{fill:#27ae60;}</style></defs><g transform="translate(0)"><g transform="translate(0)"><path class="a" d="M16.684,3.9a.876.876,0,0,0-.643-.265H12.106A2.406,2.406,0,0,0,10.9,4.01V.908a.875.875,0,0,0-.265-.643A.876.876,0,0,0,9.988,0H6.053a2.184,2.184,0,0,0-.832.189A2.2,2.2,0,0,0,4.5.643L.643,4.5a2.2,2.2,0,0,0-.454.719A2.184,2.184,0,0,0,0,6.053v6.356a.875.875,0,0,0,.265.643.875.875,0,0,0,.643.265H6.053v2.724a.9.9,0,0,0,.908.908h9.08a.9.9,0,0,0,.908-.908V4.54A.875.875,0,0,0,16.684,3.9ZM10.9,5.647V8.475H8.068ZM4.843,2.015V4.843H2.015ZM6.7,8.134a2.2,2.2,0,0,0-.454.719,2.185,2.185,0,0,0-.189.832v2.421H1.211V6.053H5.145a.9.9,0,0,0,.908-.908V1.211H9.685V5.145Zm9.042,7.6H7.264V9.685H11.2a.9.9,0,0,0,.908-.908V4.843h3.632v10.9h0Z" transform="translate(0)"/></g><g transform="translate(-401 -269)"><circle class="a" cx="1" cy="1" r="1" transform="translate(419 269)"/><circle class="a" cx="1" cy="1" r="1" transform="translate(419 272)"/><circle class="a" cx="1" cy="1" r="1" transform="translate(419 275)"/></g></g></svg>