<svg xmlns="http://www.w3.org/2000/svg" width="22" height="22" viewBox="0 0 22 22"><defs><style>.a{fill:#27ae60;}.b{fill:#fff;}</style></defs><path class="a" d="M11,0a11,11,0,0,1,0,22c-.134,0-.267,0-.74-.025A11,11,0,0,1,11,0Z"/><g transform="translate(3.415 4.195)"><path class="b" d="M342.9,298.747a.274.274,0,0,0-.387,0l-1.1,1.1a.274.274,0,0,0,.387.387l.628-.628v2.626a.274.274,0,1,0,.548,0V299.6l.628.628a.274.274,0,0,0,.387-.387Z" transform="translate(-331.837 -290.744)"/><path class="b" d="M13.182,28.679V23.73a1.2,1.2,0,0,0-1.2-1.2H6.415L5.3,21.421a.3.3,0,0,0-.212-.088H1.2a1.2,1.2,0,0,0-1.2,1.2V30.92a1.2,1.2,0,0,0,1.2,1.2H7.917a3.294,3.294,0,1,0,5.265-3.439ZM7.8,31.519H1.2a.6.6,0,0,1-.6-.6V22.531a.6.6,0,0,1,.6-.6H4.969l1.111,1.111a.3.3,0,0,0,.212.088h5.692a.6.6,0,0,1,.6.6v4.558a3.29,3.29,0,0,0-4.793,2.932C7.789,31.32,7.8,31.42,7.8,31.519Zm3.28,2.4a2.7,2.7,0,1,1,2.7-2.7A2.7,2.7,0,0,1,11.085,33.916Z" transform="translate(0 -21.333)"/></g></svg>