<svg xmlns="http://www.w3.org/2000/svg" width="59.292" height="53.974" viewBox="0 0 59.292 53.974"><defs><style>.a{fill:#6a6868;}</style></defs><ellipse class="a" cx="27.107" cy="6.078" rx="27.107" ry="6.078" transform="translate(0.59)"/><path class="a" d="M13.148,119.366a78.164,78.164,0,0,0,19.2,2.137c15.377-.117,22.565-3.225,22.565-3.225,2.925-1.072,4.592-2.26,4.592-3.342v-4.93a.97.97,0,0,0-.018-.172c-.951,1.369-3.3,2.4-5.469,3.089v3.126a.91.91,0,0,1-1.8,0v-2.606c-.543.141-1.035.256-1.441.346v3.794a1.213,1.213,0,0,1-2.4,0v-3.345a101.918,101.918,0,0,1-16.028,1.17c-14.239,0-25.925-2.45-27.14-5.573a.948.948,0,0,0-.017.172v5.037C5.194,116.482,8.168,118.1,13.148,119.366Z" transform="translate(-4.654 -99.058)"/><path class="a" d="M102.176,238.917c-.951,1.369-3.3,2.4-5.469,3.089v3.126a.91.91,0,0,1-1.8,0v-2.606c-.543.141-1.035.256-1.441.346v3.794a1.213,1.213,0,0,1-2.4,0V243.32a101.925,101.925,0,0,1-16.028,1.169c-14.239,0-25.925-2.45-27.14-5.573a.946.946,0,0,0-.017.171v5.037c0,1.44,2.974,3.056,7.954,4.323a78.168,78.168,0,0,0,19.2,2.137c15.377-.117,22.565-3.225,22.565-3.225,2.925-1.072,4.592-2.26,4.592-3.342v-4.93A.916.916,0,0,0,102.176,238.917Z" transform="translate(-42.901 -212.228)"/><path class="a" d="M27.157,371.158a101.91,101.91,0,0,1-16.028-1.169v3.345a1.129,1.129,0,0,1-1.2,1.04,1.129,1.129,0,0,1-1.2-1.04v-3.794c-.405-.089-.9-.2-1.441-.346V371.8a.846.846,0,0,1-.9.78.846.846,0,0,1-.9-.78v-3.126c-2.167-.693-4.519-1.72-5.469-3.089a.947.947,0,0,0-.018.171v4.93c0,1.082,1.667,2.27,4.592,3.342,0,0,7.188,3.108,22.565,3.225a78.157,78.157,0,0,0,19.2-2.136c4.98-1.267,7.954-2.884,7.954-4.323v-5.037a.946.946,0,0,0-.017-.171C53.082,368.708,41.4,371.158,27.157,371.158Z" transform="translate(0 -323.281)"/><path class="a" d="M71.752,186.222a73.273,73.273,0,0,1-19.209-2.137,35.7,35.7,0,0,1-3.6-1.1c.532,3.252,12.455,5.852,27.088,5.852,14.972,0,27.109-2.721,27.109-6.078,0-1.2-1.55-2.317-4.224-3.259v.156c0,1.136-1.838,2.39-5.043,3.5C93.875,183.158,86.824,185.872,71.752,186.222Z" transform="translate(-43.856 -160.322)"/><path class="a" d="M28.172,315.609c14.633,0,26.556-2.6,27.088-5.851a35.784,35.784,0,0,1-3.6,1.1,73.29,73.29,0,0,1-19.21,2.137c-15.072-.351-22.123-3.064-22.123-3.064-3.205-1.113-5.043-2.367-5.043-3.5v-.156c-2.674.942-4.224,2.06-4.224,3.259C1.063,312.888,13.2,315.609,28.172,315.609Z" transform="translate(-0.952 -271.617)"/></svg>