<svg xmlns="http://www.w3.org/2000/svg" xmlns:xlink="http://www.w3.org/1999/xlink" width="65.752" height="60" viewBox="0 0 65.752 60"><defs><style>.a{fill:none;}.b{clip-path:url(#a);}.c{fill:#6a6868;}</style><clipPath id="a"><rect class="a" width="65.752" height="60"/></clipPath></defs><g class="b"><path class="c" d="M56.948,63.152H52.861v-33.1a8.844,8.844,0,0,0-8.8-8.912H8.374a.986.986,0,0,0-.472.08,8.976,8.976,0,0,0,0,17.825c.157,0,.314.08.472.08h.472V72.3a8.929,8.929,0,0,0,8.8,8.833h39.3a8.994,8.994,0,0,0,0-17.984ZM8.846,34.266v-.08a4.138,4.138,0,0,1,0-8.276H36.277a9.209,9.209,0,0,0,0,8.355ZM46.573,66.812H14.348V62.038H46.573Zm0-9.549H14.348V52.489H46.573Zm0-9.549H14.348V42.94H46.573ZM57.026,76.2a4.085,4.085,0,0,1-4.087-4.138V67.926h4.087a4.138,4.138,0,0,1,0,8.276Z" transform="translate(0 -21.136)"/></g></svg>